# xmcd
#
# Track frame offsets: 
#        150
#        14663
#        49931
#        68885
#        86642
#        104053
#        132330
#        149474
#        170715
#        180502
#        201250
#
# Disc length: 3239 seconds
#
# Revision: 0
# Processed by: cddbd v1.5.2PL0 Copyright (c) Steve Scherf et al.
# Submitted via: ExactAudioCopy v0.99pb3
#
DISCID=aa0ca50b
DTITLE=The Joe Richardson Express - Wavvvy Beyond
DYEAR=1900
DGENRE=Blues
TTITLE0=Medicine Man
TTITLE1=Come Home Baby
TTITLE2=Dead Man's Money
TTITLE3=Greyhound Bus
TTITLE4=Dawn That Guitar
TTITLE5=Kill Me Quickly
TTITLE6=I've Seen The Devil
TTITLE7=Please Don't Love Me Anymore
TTITLE8=Showed My Soul To You
TTITLE9=Lil' Mambo
TTITLE10=Goin' Home
EXTD=
EXTT0=
EXTT1=
EXTT2=
EXTT3=
EXTT4=
EXTT5=
EXTT6=
EXTT7=
EXTT8=
EXTT9=
EXTT10=
PLAYORDER=
